# Blender 5.1.2
# www.blender.org
mtllib Ball180_336.mtl
o Sphere
v 0.000000 1.000000 0.000000
v 0.000000 0.978148 -0.207912
v 0.000000 0.809017 -0.587785
v 0.000000 0.500000 -0.866025
v 0.000000 0.309017 -0.951057
v 0.000000 -0.104528 -0.994522
v 0.000000 -0.309017 -0.951057
v 0.000000 -0.669131 -0.743145
v 0.000000 -0.809017 -0.587785
v 0.000000 -0.978148 -0.207912
v 0.000000 -1.000000 0.000000
v 0.103956 0.978148 -0.180057
v 0.203368 0.913545 -0.352244
v 0.293893 0.809017 -0.509037
v 0.371572 0.669131 -0.643582
v 0.433013 0.500000 -0.750000
v 0.475528 0.309017 -0.823639
v 0.497261 0.104528 -0.861281
v 0.497261 -0.104528 -0.861281
v 0.475528 -0.309017 -0.823639
v 0.433013 -0.500000 -0.750000
v 0.371572 -0.669131 -0.643582
v 0.293893 -0.809017 -0.509037
v 0.203368 -0.913545 -0.352244
v 0.103956 -0.978148 -0.180057
v 0.180057 0.978148 -0.103956
v 0.352244 0.913545 -0.203368
v 0.509037 0.809017 -0.293893
v 0.643582 0.669131 -0.371572
v 0.750000 0.500000 -0.433013
v 0.823639 0.309017 -0.475528
v 0.861281 0.104528 -0.497261
v 0.861281 -0.104528 -0.497261
v 0.823639 -0.309017 -0.475528
v 0.750000 -0.500000 -0.433013
v 0.643582 -0.669131 -0.371572
v 0.509037 -0.809017 -0.293893
v 0.352244 -0.913545 -0.203368
v 0.180057 -0.978148 -0.103956
v 0.207912 0.978148 0.000000
v 0.406737 0.913545 0.000000
v 0.587785 0.809017 0.000000
v 0.743145 0.669131 -0.000000
v 0.866025 0.500000 0.000000
v 0.951056 0.309017 0.000000
v 0.994522 0.104528 0.000000
v 0.994522 -0.104528 0.000000
v 0.951056 -0.309017 0.000000
v 0.866025 -0.500000 0.000000
v 0.743145 -0.669131 -0.000000
v 0.587785 -0.809017 0.000000
v 0.406737 -0.913545 0.000000
v 0.207912 -0.978148 0.000000
v 0.180057 0.978148 0.103956
v 0.352244 0.913545 0.203368
v 0.509037 0.809017 0.293893
v 0.643582 0.669131 0.371572
v 0.750000 0.500000 0.433013
v 0.823639 0.309017 0.475528
v 0.861281 0.104528 0.497261
v 0.861281 -0.104528 0.497261
v 0.823639 -0.309017 0.475528
v 0.750000 -0.500000 0.433013
v 0.643582 -0.669131 0.371572
v 0.509037 -0.809017 0.293893
v 0.352244 -0.913545 0.203368
v 0.180057 -0.978148 0.103956
v 0.103956 0.978148 0.180057
v 0.203368 0.913545 0.352244
v 0.293893 0.809017 0.509037
v 0.371572 0.669131 0.643582
v 0.433013 0.500000 0.750000
v 0.475528 0.309017 0.823639
v 0.497261 0.104528 0.861281
v 0.497261 -0.104528 0.861281
v 0.475528 -0.309017 0.823639
v 0.433013 -0.500000 0.750000
v 0.371572 -0.669131 0.643582
v 0.293893 -0.809017 0.509037
v 0.203368 -0.913545 0.352244
v 0.103956 -0.978148 0.180057
v -0.000000 0.978148 0.207912
v -0.000000 0.913545 0.406737
v 0.000000 0.809017 0.587785
v 0.000000 0.669131 0.743145
v -0.000000 0.500000 0.866025
v -0.000000 0.309017 0.951056
v -0.000000 0.104528 0.994522
v -0.000000 -0.104528 0.994522
v -0.000000 -0.309017 0.951056
v -0.000000 -0.500000 0.866025
v 0.000000 -0.669131 0.743145
v 0.000000 -0.809017 0.587785
v -0.000000 -0.913545 0.406737
v -0.000000 -0.978148 0.207912
v -0.103956 0.978148 0.180057
v -0.203368 0.913545 0.352244
v -0.293893 0.809017 0.509037
v -0.371572 0.669131 0.643582
v -0.433013 0.500000 0.750000
v -0.475528 0.309017 0.823639
v -0.497261 0.104528 0.861281
v -0.497261 -0.104528 0.861281
v -0.475528 -0.309017 0.823639
v -0.433013 -0.500000 0.750000
v -0.371572 -0.669131 0.643582
v -0.293893 -0.809017 0.509037
v -0.203368 -0.913545 0.352244
v -0.103956 -0.978148 0.180057
v -0.180057 0.978148 0.103956
v -0.352244 0.913545 0.203368
v -0.509037 0.809017 0.293893
v -0.643582 0.669131 0.371572
v -0.750000 0.500000 0.433013
v -0.823639 0.309017 0.475528
v -0.861281 0.104528 0.497261
v -0.861281 -0.104528 0.497261
v -0.823639 -0.309017 0.475528
v -0.750000 -0.500000 0.433013
v -0.643582 -0.669131 0.371572
v -0.509037 -0.809017 0.293893
v -0.352244 -0.913545 0.203368
v -0.180057 -0.978148 0.103956
v -0.207912 0.978148 -0.000000
v -0.406737 0.913545 -0.000000
v -0.587785 0.809017 0.000000
v -0.743145 0.669131 -0.000000
v -0.866025 0.500000 -0.000000
v -0.951056 0.309017 -0.000000
v -0.994522 0.104528 -0.000000
v -0.994522 -0.104528 -0.000000
v -0.951056 -0.309017 -0.000000
v -0.866025 -0.500000 -0.000000
v -0.743145 -0.669131 -0.000000
v -0.587785 -0.809017 0.000000
v -0.406737 -0.913545 -0.000000
v -0.207912 -0.978148 -0.000000
v -0.180057 0.978148 -0.103956
v -0.352244 0.913545 -0.203368
v -0.509037 0.809017 -0.293893
v -0.643582 0.669131 -0.371572
v -0.750000 0.500000 -0.433013
v -0.823639 0.309017 -0.475528
v -0.861281 0.104528 -0.497261
v -0.861281 -0.104528 -0.497261
v -0.823639 -0.309017 -0.475528
v -0.750000 -0.500000 -0.433013
v -0.643582 -0.669131 -0.371572
v -0.509037 -0.809017 -0.293893
v -0.352244 -0.913545 -0.203368
v -0.180057 -0.978148 -0.103956
v -0.103956 0.978148 -0.180057
v -0.203368 0.913545 -0.352244
v -0.293893 0.809017 -0.509037
v -0.371572 0.669131 -0.643582
v -0.433013 0.500000 -0.750000
v -0.475528 0.309017 -0.823639
v -0.497261 0.104528 -0.861281
v -0.497261 -0.104528 -0.861281
v -0.475528 -0.309017 -0.823639
v -0.433013 -0.500000 -0.750000
v -0.371572 -0.669131 -0.643582
v -0.293893 -0.809017 -0.509037
v -0.203368 -0.913545 -0.352244
v -0.103956 -0.978148 -0.180057
v 0.000000 0.913545 -0.406737
v 0.000000 0.669131 -0.743145
v 0.000000 0.104528 -0.994522
v 0.000000 -0.500000 -0.866025
v 0.000000 -0.913545 -0.406737
vn 0.2119 -0.5744 -0.7907
vn 0.1765 0.7315 -0.6586
vn 0.1765 -0.7315 -0.6586
vn 0.2119 0.5744 -0.7907
vn 0.1328 -0.8584 -0.4956
vn 0.2378 0.3951 -0.8873
vn 0.0825 -0.9478 -0.3080
vn 0.2535 0.2011 -0.9462
vn 0.0280 -0.9941 -0.1045
vn 0.2588 -0.0000 -0.9659
vn 0.0280 0.9941 -0.1045
vn 0.2535 -0.2011 -0.9462
vn 0.0825 0.9478 -0.3080
vn 0.2378 -0.3951 -0.8873
vn 0.1328 0.8584 -0.4956
vn 0.5788 -0.5744 -0.5788
vn 0.4821 0.7315 -0.4821
vn 0.4821 -0.7315 -0.4821
vn 0.5788 0.5744 -0.5788
vn 0.3628 -0.8584 -0.3628
vn 0.6496 0.3951 -0.6496
vn 0.2254 -0.9478 -0.2254
vn 0.6927 0.2011 -0.6927
vn 0.0765 -0.9941 -0.0765
vn 0.7071 -0.0000 -0.7071
vn 0.0765 0.9941 -0.0765
vn 0.6927 -0.2011 -0.6927
vn 0.2254 0.9478 -0.2254
vn 0.6496 -0.3951 -0.6496
vn 0.3628 0.8584 -0.3628
vn 0.3080 0.9478 -0.0825
vn 0.8873 -0.3951 -0.2378
vn 0.4956 0.8584 -0.1328
vn 0.7907 -0.5744 -0.2119
vn 0.6586 0.7315 -0.1765
vn 0.6586 -0.7315 -0.1765
vn 0.7907 0.5744 -0.2119
vn 0.4956 -0.8584 -0.1328
vn 0.8873 0.3951 -0.2378
vn 0.3080 -0.9478 -0.0825
vn 0.9462 0.2011 -0.2535
vn 0.1045 -0.9941 -0.0280
vn 0.9659 -0.0000 -0.2588
vn 0.1045 0.9941 -0.0280
vn 0.9462 -0.2011 -0.2535
vn 0.9659 -0.0000 0.2588
vn 0.1045 0.9941 0.0280
vn 0.9462 -0.2011 0.2535
vn 0.3080 0.9478 0.0825
vn 0.8873 -0.3951 0.2378
vn 0.4956 0.8584 0.1328
vn 0.7907 -0.5744 0.2119
vn 0.6586 0.7315 0.1765
vn 0.6586 -0.7315 0.1765
vn 0.7907 0.5744 0.2119
vn 0.4956 -0.8584 0.1328
vn 0.8873 0.3951 0.2378
vn 0.3080 -0.9478 0.0825
vn 0.9462 0.2011 0.2535
vn 0.1045 -0.9941 0.0280
vn 0.2254 -0.9478 0.2254
vn 0.6927 0.2011 0.6927
vn 0.0765 -0.9941 0.0765
vn 0.7071 -0.0000 0.7071
vn 0.0765 0.9941 0.0765
vn 0.6927 -0.2011 0.6927
vn 0.2254 0.9478 0.2254
vn 0.6496 -0.3951 0.6496
vn 0.3628 0.8584 0.3628
vn 0.5788 -0.5744 0.5788
vn 0.4821 0.7315 0.4821
vn 0.4821 -0.7315 0.4821
vn 0.5788 0.5744 0.5788
vn 0.3628 -0.8584 0.3628
vn 0.6496 0.3951 0.6496
vn 0.2119 0.5744 0.7907
vn 0.1328 -0.8584 0.4956
vn 0.2378 0.3951 0.8873
vn 0.0825 -0.9478 0.3080
vn 0.2535 0.2011 0.9462
vn 0.0280 -0.9941 0.1045
vn 0.2588 -0.0000 0.9659
vn 0.0280 0.9941 0.1045
vn 0.2535 -0.2011 0.9462
vn 0.0825 0.9478 0.3080
vn 0.2378 -0.3951 0.8873
vn 0.1328 0.8584 0.4956
vn 0.2119 -0.5744 0.7907
vn 0.1765 0.7315 0.6586
vn 0.1765 -0.7315 0.6586
vn -0.2119 -0.5744 0.7907
vn -0.1765 0.7315 0.6586
vn -0.1765 -0.7315 0.6586
vn -0.2119 0.5744 0.7907
vn -0.1328 -0.8584 0.4956
vn -0.2378 0.3951 0.8873
vn -0.0825 -0.9478 0.3080
vn -0.2535 0.2011 0.9462
vn -0.0280 -0.9941 0.1045
vn -0.2588 -0.0000 0.9659
vn -0.0280 0.9941 0.1045
vn -0.2535 -0.2011 0.9462
vn -0.0825 0.9478 0.3080
vn -0.2378 -0.3951 0.8873
vn -0.1328 0.8584 0.4956
vn -0.6496 -0.3951 0.6496
vn -0.3628 0.8584 0.3628
vn -0.5788 -0.5744 0.5788
vn -0.4821 0.7315 0.4821
vn -0.4821 -0.7315 0.4821
vn -0.5788 0.5744 0.5788
vn -0.3628 -0.8584 0.3628
vn -0.6496 0.3951 0.6496
vn -0.2254 -0.9478 0.2254
vn -0.6927 0.2011 0.6927
vn -0.0765 -0.9941 0.0765
vn -0.7071 -0.0000 0.7071
vn -0.0765 0.9941 0.0765
vn -0.6927 -0.2011 0.6927
vn -0.2254 0.9478 0.2254
vn -0.1045 0.9941 0.0280
vn -0.9462 -0.2011 0.2535
vn -0.3080 0.9478 0.0825
vn -0.8873 -0.3951 0.2378
vn -0.4956 0.8584 0.1328
vn -0.7907 -0.5744 0.2119
vn -0.6586 0.7315 0.1765
vn -0.6586 -0.7315 0.1765
vn -0.7907 0.5744 0.2119
vn -0.4956 -0.8584 0.1328
vn -0.8873 0.3951 0.2378
vn -0.3080 -0.9478 0.0825
vn -0.9462 0.2011 0.2535
vn -0.1045 -0.9941 0.0280
vn -0.9659 -0.0000 0.2588
vn -0.9462 0.2011 -0.2535
vn -0.1045 -0.9941 -0.0280
vn -0.9659 -0.0000 -0.2588
vn -0.1045 0.9941 -0.0280
vn -0.9462 -0.2011 -0.2535
vn -0.3080 0.9478 -0.0825
vn -0.8873 -0.3951 -0.2378
vn -0.4956 0.8584 -0.1328
vn -0.7907 -0.5744 -0.2119
vn -0.6586 0.7315 -0.1765
vn -0.6586 -0.7315 -0.1765
vn -0.7907 0.5744 -0.2119
vn -0.4956 -0.8584 -0.1328
vn -0.8873 0.3951 -0.2378
vn -0.3080 -0.9478 -0.0825
vn -0.3628 -0.8584 -0.3628
vn -0.6496 0.3951 -0.6496
vn -0.2254 -0.9478 -0.2254
vn -0.6927 0.2011 -0.6927
vn -0.0765 -0.9941 -0.0765
vn -0.7071 -0.0000 -0.7071
vn -0.0765 0.9941 -0.0765
vn -0.6927 -0.2011 -0.6927
vn -0.2254 0.9478 -0.2254
vn -0.6496 -0.3951 -0.6496
vn -0.3628 0.8584 -0.3628
vn -0.5788 -0.5744 -0.5788
vn -0.4821 0.7315 -0.4821
vn -0.4821 -0.7315 -0.4821
vn -0.5788 0.5744 -0.5788
vn -0.1765 0.7315 -0.6586
vn -0.1765 -0.7315 -0.6586
vn -0.2119 0.5744 -0.7907
vn -0.1328 -0.8584 -0.4956
vn -0.2378 0.3951 -0.8873
vn -0.0825 -0.9478 -0.3080
vn -0.2535 0.2011 -0.9462
vn -0.0280 -0.9941 -0.1045
vn -0.2588 -0.0000 -0.9659
vn -0.0280 0.9941 -0.1045
vn -0.2535 -0.2011 -0.9462
vn -0.0825 0.9478 -0.3080
vn -0.2378 -0.3951 -0.8873
vn -0.1328 0.8584 -0.4956
vn -0.2119 -0.5744 -0.7907
vt 0.750000 0.266667
vt 0.750000 0.333333
vt 0.666667 0.333333
vt 0.666667 0.266667
vt 0.750000 0.733333
vt 0.750000 0.800000
vt 0.666667 0.800000
vt 0.666667 0.733333
vt 0.750000 0.200000
vt 0.666667 0.200000
vt 0.750000 0.666667
vt 0.666667 0.666667
vt 0.750000 0.133333
vt 0.666667 0.133333
vt 0.750000 0.600000
vt 0.666667 0.600000
vt 0.750000 0.066667
vt 0.666667 0.066667
vt 0.750000 0.533333
vt 0.666667 0.533333
vt 0.708333 0.000000
vt 0.750000 0.466667
vt 0.666667 0.466667
vt 0.750000 0.933333
vt 0.708333 1.000000
vt 0.666667 0.933333
vt 0.750000 0.400000
vt 0.666667 0.400000
vt 0.750000 0.866667
vt 0.666667 0.866667
vt 0.583333 0.333333
vt 0.583333 0.266667
vt 0.583333 0.800000
vt 0.583333 0.733333
vt 0.583333 0.200000
vt 0.583333 0.666667
vt 0.583333 0.133333
vt 0.583333 0.600000
vt 0.583333 0.066667
vt 0.583333 0.533333
vt 0.625000 0.000000
vt 0.583333 0.466667
vt 0.625000 1.000000
vt 0.583333 0.933333
vt 0.583333 0.400000
vt 0.583333 0.866667
vt 0.500000 0.933333
vt 0.500000 0.866667
vt 0.500000 0.400000
vt 0.500000 0.333333
vt 0.500000 0.800000
vt 0.500000 0.266667
vt 0.500000 0.733333
vt 0.500000 0.200000
vt 0.500000 0.666667
vt 0.500000 0.133333
vt 0.500000 0.600000
vt 0.500000 0.066667
vt 0.500000 0.533333
vt 0.541667 0.000000
vt 0.500000 0.466667
vt 0.541667 1.000000
vt 0.416667 0.533333
vt 0.416667 0.466667
vt 0.458333 1.000000
vt 0.416667 0.933333
vt 0.416667 0.400000
vt 0.416667 0.866667
vt 0.416667 0.333333
vt 0.416667 0.800000
vt 0.416667 0.266667
vt 0.416667 0.733333
vt 0.416667 0.200000
vt 0.416667 0.666667
vt 0.416667 0.133333
vt 0.416667 0.600000
vt 0.416667 0.066667
vt 0.458333 0.000000
vt 0.333333 0.133333
vt 0.333333 0.066667
vt 0.333333 0.600000
vt 0.333333 0.533333
vt 0.375000 0.000000
vt 0.333333 0.466667
vt 0.375000 1.000000
vt 0.333333 0.933333
vt 0.333333 0.400000
vt 0.333333 0.866667
vt 0.333333 0.333333
vt 0.333333 0.800000
vt 0.333333 0.266667
vt 0.333333 0.733333
vt 0.333333 0.200000
vt 0.333333 0.666667
vt 0.250000 0.733333
vt 0.250000 0.666667
vt 0.250000 0.200000
vt 0.250000 0.133333
vt 0.250000 0.600000
vt 0.250000 0.066667
vt 0.250000 0.533333
vt 0.291667 0.000000
vt 0.250000 0.466667
vt 0.291667 1.000000
vt 0.250000 0.933333
vt 0.250000 0.400000
vt 0.250000 0.866667
vt 0.250000 0.333333
vt 0.250000 0.800000
vt 0.250000 0.266667
vt 0.166667 0.333333
vt 0.166667 0.266667
vt 0.166667 0.800000
vt 0.166667 0.733333
vt 0.166667 0.200000
vt 0.166667 0.666667
vt 0.166667 0.133333
vt 0.166667 0.600000
vt 0.166667 0.066667
vt 0.166667 0.533333
vt 0.208333 0.000000
vt 0.166667 0.466667
vt 0.208333 1.000000
vt 0.166667 0.933333
vt 0.166667 0.400000
vt 0.166667 0.866667
vt 0.083333 0.400000
vt 0.083333 0.333333
vt 0.083333 0.866667
vt 0.083333 0.800000
vt 0.083333 0.266667
vt 0.083333 0.733333
vt 0.083333 0.200000
vt 0.083333 0.666667
vt 0.083333 0.133333
vt 0.083333 0.600000
vt 0.083333 0.066667
vt 0.083333 0.533333
vt 0.125000 0.000000
vt 0.083333 0.466667
vt 0.125000 1.000000
vt 0.083333 0.933333
vt 0.041667 1.000000
vt 0.000000 0.933333
vt 0.000000 0.466667
vt 0.000000 0.400000
vt 0.000000 0.866667
vt 0.000000 0.333333
vt 0.000000 0.800000
vt 0.000000 0.266667
vt 0.000000 0.733333
vt 0.000000 0.200000
vt 0.000000 0.666667
vt 0.000000 0.133333
vt 0.000000 0.600000
vt 0.000000 0.066667
vt 0.000000 0.533333
vt 0.041667 0.000000
vt 1.000000 0.533333
vt 1.000000 0.600000
vt 0.916667 0.600000
vt 0.916667 0.533333
vt 0.958333 0.000000
vt 1.000000 0.066667
vt 0.916667 0.066667
vt 1.000000 0.466667
vt 0.916667 0.466667
vt 1.000000 0.933333
vt 0.958333 1.000000
vt 0.916667 0.933333
vt 1.000000 0.400000
vt 0.916667 0.400000
vt 1.000000 0.866667
vt 0.916667 0.866667
vt 1.000000 0.333333
vt 0.916667 0.333333
vt 1.000000 0.800000
vt 0.916667 0.800000
vt 1.000000 0.266667
vt 0.916667 0.266667
vt 1.000000 0.733333
vt 0.916667 0.733333
vt 1.000000 0.200000
vt 0.916667 0.200000
vt 1.000000 0.666667
vt 0.916667 0.666667
vt 1.000000 0.133333
vt 0.916667 0.133333
vt 0.833333 0.200000
vt 0.833333 0.133333
vt 0.833333 0.666667
vt 0.833333 0.600000
vt 0.833333 0.066667
vt 0.833333 0.533333
vt 0.875000 0.000000
vt 0.833333 0.466667
vt 0.875000 1.000000
vt 0.833333 0.933333
vt 0.833333 0.400000
vt 0.833333 0.866667
vt 0.833333 0.333333
vt 0.833333 0.800000
vt 0.833333 0.266667
vt 0.833333 0.733333
vt 0.791667 0.000000
vt 0.791667 1.000000
s 0
f 8/1/1 169/2/1 21/3/1 22/4/1
f 167/5/2 3/6/2 14/7/2 15/8/2
f 9/9/3 8/1/3 22/4/3 23/10/3
f 4/11/4 167/5/4 15/8/4 16/12/4
f 170/13/5 9/9/5 23/10/5 24/14/5
f 5/15/6 4/11/6 16/12/6 17/16/6
f 10/17/7 170/13/7 24/14/7 25/18/7
f 168/19/8 5/15/8 17/16/8 18/20/8
f 11/21/9 10/17/9 25/18/9
f 6/22/10 168/19/10 18/20/10 19/23/10
f 2/24/11 1/25/11 12/26/11
f 7/27/12 6/22/12 19/23/12 20/28/12
f 166/29/13 2/24/13 12/26/13 13/30/13
f 169/2/14 7/27/14 20/28/14 21/3/14
f 3/6/15 166/29/15 13/30/15 14/7/15
f 22/4/16 21/3/16 35/31/16 36/32/16
f 15/8/17 14/7/17 28/33/17 29/34/17
f 23/10/18 22/4/18 36/32/18 37/35/18
f 16/12/19 15/8/19 29/34/19 30/36/19
f 24/14/20 23/10/20 37/35/20 38/37/20
f 17/16/21 16/12/21 30/36/21 31/38/21
f 25/18/22 24/14/22 38/37/22 39/39/22
f 18/20/23 17/16/23 31/38/23 32/40/23
f 11/41/24 25/18/24 39/39/24
f 19/23/25 18/20/25 32/40/25 33/42/25
f 12/26/26 1/43/26 26/44/26
f 20/28/27 19/23/27 33/42/27 34/45/27
f 13/30/28 12/26/28 26/44/28 27/46/28
f 21/3/29 20/28/29 34/45/29 35/31/29
f 14/7/30 13/30/30 27/46/30 28/33/30
f 27/46/31 26/44/31 40/47/31 41/48/31
f 35/31/32 34/45/32 48/49/32 49/50/32
f 28/33/33 27/46/33 41/48/33 42/51/33
f 36/32/34 35/31/34 49/50/34 50/52/34
f 29/34/35 28/33/35 42/51/35 43/53/35
f 37/35/36 36/32/36 50/52/36 51/54/36
f 30/36/37 29/34/37 43/53/37 44/55/37
f 38/37/38 37/35/38 51/54/38 52/56/38
f 31/38/39 30/36/39 44/55/39 45/57/39
f 39/39/40 38/37/40 52/56/40 53/58/40
f 32/40/41 31/38/41 45/57/41 46/59/41
f 11/60/42 39/39/42 53/58/42
f 33/42/43 32/40/43 46/59/43 47/61/43
f 26/44/44 1/62/44 40/47/44
f 34/45/45 33/42/45 47/61/45 48/49/45
f 47/61/46 46/59/46 60/63/46 61/64/46
f 40/47/47 1/65/47 54/66/47
f 48/49/48 47/61/48 61/64/48 62/67/48
f 41/48/49 40/47/49 54/66/49 55/68/49
f 49/50/50 48/49/50 62/67/50 63/69/50
f 42/51/51 41/48/51 55/68/51 56/70/51
f 50/52/52 49/50/52 63/69/52 64/71/52
f 43/53/53 42/51/53 56/70/53 57/72/53
f 51/54/54 50/52/54 64/71/54 65/73/54
f 44/55/55 43/53/55 57/72/55 58/74/55
f 52/56/56 51/54/56 65/73/56 66/75/56
f 45/57/57 44/55/57 58/74/57 59/76/57
f 53/58/58 52/56/58 66/75/58 67/77/58
f 46/59/59 45/57/59 59/76/59 60/63/59
f 11/78/60 53/58/60 67/77/60
f 67/77/61 66/75/61 80/79/61 81/80/61
f 60/63/62 59/76/62 73/81/62 74/82/62
f 11/83/63 67/77/63 81/80/63
f 61/64/64 60/63/64 74/82/64 75/84/64
f 54/66/65 1/85/65 68/86/65
f 62/67/66 61/64/66 75/84/66 76/87/66
f 55/68/67 54/66/67 68/86/67 69/88/67
f 63/69/68 62/67/68 76/87/68 77/89/68
f 56/70/69 55/68/69 69/88/69 70/90/69
f 64/71/70 63/69/70 77/89/70 78/91/70
f 57/72/71 56/70/71 70/90/71 71/92/71
f 65/73/72 64/71/72 78/91/72 79/93/72
f 58/74/73 57/72/73 71/92/73 72/94/73
f 66/75/74 65/73/74 79/93/74 80/79/74
f 59/76/75 58/74/75 72/94/75 73/81/75
f 72/94/76 71/92/76 85/95/76 86/96/76
f 80/79/77 79/93/77 93/97/77 94/98/77
f 73/81/78 72/94/78 86/96/78 87/99/78
f 81/80/79 80/79/79 94/98/79 95/100/79
f 74/82/80 73/81/80 87/99/80 88/101/80
f 11/102/81 81/80/81 95/100/81
f 75/84/82 74/82/82 88/101/82 89/103/82
f 68/86/83 1/104/83 82/105/83
f 76/87/84 75/84/84 89/103/84 90/106/84
f 69/88/85 68/86/85 82/105/85 83/107/85
f 77/89/86 76/87/86 90/106/86 91/108/86
f 70/90/87 69/88/87 83/107/87 84/109/87
f 78/91/88 77/89/88 91/108/88 92/110/88
f 71/92/89 70/90/89 84/109/89 85/95/89
f 79/93/90 78/91/90 92/110/90 93/97/90
f 92/110/91 91/108/91 105/111/91 106/112/91
f 85/95/92 84/109/92 98/113/92 99/114/92
f 93/97/93 92/110/93 106/112/93 107/115/93
f 86/96/94 85/95/94 99/114/94 100/116/94
f 94/98/95 93/97/95 107/115/95 108/117/95
f 87/99/96 86/96/96 100/116/96 101/118/96
f 95/100/97 94/98/97 108/117/97 109/119/97
f 88/101/98 87/99/98 101/118/98 102/120/98
f 11/121/99 95/100/99 109/119/99
f 89/103/100 88/101/100 102/120/100 103/122/100
f 82/105/101 1/123/101 96/124/101
f 90/106/102 89/103/102 103/122/102 104/125/102
f 83/107/103 82/105/103 96/124/103 97/126/103
f 91/108/104 90/106/104 104/125/104 105/111/104
f 84/109/105 83/107/105 97/126/105 98/113/105
f 105/111/106 104/125/106 118/127/106 119/128/106
f 98/113/107 97/126/107 111/129/107 112/130/107
f 106/112/108 105/111/108 119/128/108 120/131/108
f 99/114/109 98/113/109 112/130/109 113/132/109
f 107/115/110 106/112/110 120/131/110 121/133/110
f 100/116/111 99/114/111 113/132/111 114/134/111
f 108/117/112 107/115/112 121/133/112 122/135/112
f 101/118/113 100/116/113 114/134/113 115/136/113
f 109/119/114 108/117/114 122/135/114 123/137/114
f 102/120/115 101/118/115 115/136/115 116/138/115
f 11/139/116 109/119/116 123/137/116
f 103/122/117 102/120/117 116/138/117 117/140/117
f 96/124/118 1/141/118 110/142/118
f 104/125/119 103/122/119 117/140/119 118/127/119
f 97/126/120 96/124/120 110/142/120 111/129/120
f 110/142/121 1/143/121 124/144/121
f 118/127/122 117/140/122 131/145/122 132/146/122
f 111/129/123 110/142/123 124/144/123 125/147/123
f 119/128/124 118/127/124 132/146/124 133/148/124
f 112/130/125 111/129/125 125/147/125 126/149/125
f 120/131/126 119/128/126 133/148/126 134/150/126
f 113/132/127 112/130/127 126/149/127 127/151/127
f 121/133/128 120/131/128 134/150/128 135/152/128
f 114/134/129 113/132/129 127/151/129 128/153/129
f 122/135/130 121/133/130 135/152/130 136/154/130
f 115/136/131 114/134/131 128/153/131 129/155/131
f 123/137/132 122/135/132 136/154/132 137/156/132
f 116/138/133 115/136/133 129/155/133 130/157/133
f 11/158/134 123/137/134 137/156/134
f 117/140/135 116/138/135 130/157/135 131/145/135
f 130/159/136 129/160/136 143/161/136 144/162/136
f 11/163/137 137/164/137 151/165/137
f 131/166/138 130/159/138 144/162/138 145/167/138
f 124/168/139 1/169/139 138/170/139
f 132/171/140 131/166/140 145/167/140 146/172/140
f 125/173/141 124/168/141 138/170/141 139/174/141
f 133/175/142 132/171/142 146/172/142 147/176/142
f 126/177/143 125/173/143 139/174/143 140/178/143
f 134/179/144 133/175/144 147/176/144 148/180/144
f 127/181/145 126/177/145 140/178/145 141/182/145
f 135/183/146 134/179/146 148/180/146 149/184/146
f 128/185/147 127/181/147 141/182/147 142/186/147
f 136/187/148 135/183/148 149/184/148 150/188/148
f 129/160/149 128/185/149 142/186/149 143/161/149
f 137/164/150 136/187/150 150/188/150 151/165/150
f 150/188/151 149/184/151 163/189/151 164/190/151
f 143/161/152 142/186/152 156/191/152 157/192/152
f 151/165/153 150/188/153 164/190/153 165/193/153
f 144/162/154 143/161/154 157/192/154 158/194/154
f 11/195/155 151/165/155 165/193/155
f 145/167/156 144/162/156 158/194/156 159/196/156
f 138/170/157 1/197/157 152/198/157
f 146/172/158 145/167/158 159/196/158 160/199/158
f 139/174/159 138/170/159 152/198/159 153/200/159
f 147/176/160 146/172/160 160/199/160 161/201/160
f 140/178/161 139/174/161 153/200/161 154/202/161
f 148/180/162 147/176/162 161/201/162 162/203/162
f 141/182/163 140/178/163 154/202/163 155/204/163
f 149/184/164 148/180/164 162/203/164 163/189/164
f 142/186/165 141/182/165 155/204/165 156/191/165
f 155/204/166 154/202/166 3/6/166 167/5/166
f 163/189/167 162/203/167 8/1/167 9/9/167
f 156/191/168 155/204/168 167/5/168 4/11/168
f 164/190/169 163/189/169 9/9/169 170/13/169
f 157/192/170 156/191/170 4/11/170 5/15/170
f 165/193/171 164/190/171 170/13/171 10/17/171
f 158/194/172 157/192/172 5/15/172 168/19/172
f 11/205/173 165/193/173 10/17/173
f 159/196/174 158/194/174 168/19/174 6/22/174
f 152/198/175 1/206/175 2/24/175
f 160/199/176 159/196/176 6/22/176 7/27/176
f 153/200/177 152/198/177 2/24/177 166/29/177
f 161/201/178 160/199/178 7/27/178 169/2/178
f 154/202/179 153/200/179 166/29/179 3/6/179
f 162/203/180 161/201/180 169/2/180 8/1/180
