# Blender 5.1.2
# www.blender.org
mtllib ATessellatedMug.mtl
o Cylinder
v 0.000000 0.000000 -1.000000
v 0.000000 2.320647 -0.950254
v 0.195090 0.000000 -0.980785
v 0.185385 2.320647 -0.931996
v 0.382683 0.000000 -0.923880
v 0.363647 2.320647 -0.877921
v 0.555570 0.000000 -0.831470
v 0.527933 2.320647 -0.790108
v 0.707107 0.000000 -0.707107
v 0.671931 2.320647 -0.671931
v 0.831470 0.000000 -0.555570
v 0.790108 2.320647 -0.527933
v 0.923880 0.000000 -0.382683
v 0.877921 2.320647 -0.363647
v 0.985152 0.227799 -0.150759
v 0.931996 2.320647 -0.185385
v 0.995634 0.227799 -0.044332
v 0.950254 2.320647 0.000000
v 0.980785 0.000000 0.195090
v 0.931996 2.320647 0.185385
v 0.923880 0.000000 0.382683
v 0.877921 2.320647 0.363647
v 0.831470 0.000000 0.555570
v 0.790108 2.320647 0.527933
v 0.707107 0.000000 0.707107
v 0.671931 2.320647 0.671931
v 0.555570 0.000000 0.831470
v 0.527933 2.320647 0.790108
v 0.382683 0.000000 0.923880
v 0.363647 2.320647 0.877921
v 0.195090 0.000000 0.980785
v 0.185385 2.320647 0.931996
v 0.000000 0.000000 1.000000
v 0.000000 2.320647 0.950254
v -0.195090 0.000000 0.980785
v -0.185385 2.320647 0.931996
v -0.382683 0.000000 0.923880
v -0.363647 2.320647 0.877921
v -0.555570 0.000000 0.831470
v -0.527933 2.320647 0.790108
v -0.707107 0.000000 0.707107
v -0.671931 2.320647 0.671931
v -0.831470 0.000000 0.555570
v -0.790108 2.320647 0.527933
v -0.923880 0.000000 0.382683
v -0.877921 2.320647 0.363647
v -0.980785 0.000000 0.195090
v -0.931996 2.320647 0.185385
v -1.000000 0.000000 0.000000
v -0.950254 2.320647 0.000000
v -0.980785 0.000000 -0.195090
v -0.931996 2.320647 -0.185385
v -0.923880 0.000000 -0.382683
v -0.877921 2.320647 -0.363647
v -0.831470 0.000000 -0.555570
v -0.790108 2.320647 -0.527933
v -0.707107 0.000000 -0.707107
v -0.671931 2.320647 -0.671931
v -0.555570 0.000000 -0.831470
v -0.527933 2.320647 -0.790108
v -0.382683 0.000000 -0.923880
v -0.363647 2.320647 -0.877921
v -0.195090 0.000000 -0.980785
v -0.185385 2.320647 -0.931996
v 0.195090 2.320647 -0.980785
v 0.000000 2.320647 -1.000000
v 0.382683 2.320647 -0.923880
v 0.555570 2.320647 -0.831470
v 0.707107 2.320647 -0.707107
v 0.831470 2.320647 -0.555570
v 0.923880 2.320647 -0.382683
v 0.985152 2.092848 -0.150759
v 0.995634 2.092848 -0.044332
v 0.980785 2.320647 0.195090
v 0.923880 2.320647 0.382683
v 0.831470 2.320647 0.555570
v 0.707107 2.320647 0.707107
v 0.555570 2.320647 0.831470
v 0.382683 2.320647 0.923880
v 0.195090 2.320647 0.980785
v 0.000000 2.320647 1.000000
v -0.195090 2.320647 0.980785
v -0.382683 2.320647 0.923880
v -0.555570 2.320647 0.831470
v -0.707107 2.320647 0.707107
v -0.831470 2.320647 0.555570
v -0.923880 2.320647 0.382683
v -0.980785 2.320647 0.195090
v -1.000000 2.320647 0.000000
v -0.980785 2.320647 -0.195090
v -0.923880 2.320647 -0.382683
v -0.831470 2.320647 -0.555570
v -0.707107 2.320647 -0.707107
v -0.555570 2.320647 -0.831470
v -0.382683 2.320647 -0.923880
v -0.195090 2.320647 -0.980785
v 0.185386 0.113124 -0.931996
v 0.000000 0.113124 -0.950254
v 0.363647 0.113124 -0.877921
v 0.527933 0.113124 -0.790108
v 0.671931 0.113124 -0.671931
v 0.790108 0.113124 -0.527933
v 0.877921 0.113124 -0.363647
v 0.931996 0.113124 -0.185385
v 0.950254 0.113124 0.000000
v 0.931996 0.113124 0.185385
v 0.877921 0.113124 0.363647
v 0.790108 0.113124 0.527933
v 0.671931 0.113124 0.671931
v 0.527933 0.113124 0.790108
v 0.363647 0.113124 0.877921
v 0.185386 0.113124 0.931996
v 0.000000 0.113124 0.950254
v -0.185385 0.113124 0.931996
v -0.363647 0.113124 0.877921
v -0.527933 0.113124 0.790108
v -0.671931 0.113124 0.671931
v -0.790108 0.113124 0.527933
v -0.877921 0.113124 0.363647
v -0.931995 0.113124 0.185385
v -0.950254 0.113124 0.000000
v -0.931995 0.113124 -0.185385
v -0.877921 0.113124 -0.363647
v -0.790108 0.113124 -0.527933
v -0.671931 0.113124 -0.671931
v -0.527933 0.113124 -0.790108
v -0.363647 0.113124 -0.877921
v -0.185385 0.113124 -0.931996
v 0.980785 2.320647 -0.195090
v 0.980785 0.000000 -0.195090
v 1.000000 0.000000 0.000000
v 1.000000 2.320647 0.000000
v 1.712638 1.869870 -0.228388
v 1.080685 1.869870 -0.160953
v 1.080685 0.350106 -0.160953
v 1.712638 0.350106 -0.228388
v 1.080685 0.350106 -0.053407
v 1.080685 1.869870 -0.053407
v 1.712638 0.350106 -0.120843
v 1.712638 1.869870 -0.120843
v 1.619589 2.092848 -0.218459
v 1.822121 1.889173 -0.240071
v 1.720855 2.065561 -0.229265
v 1.794987 1.991010 -0.237176
v 1.822121 0.431475 -0.240071
v 1.619589 0.227799 -0.218459
v 1.712671 0.350069 -0.228392
v 1.794987 0.329637 -0.237176
v 1.720855 0.255087 -0.229265
v 1.630071 0.227799 -0.112032
v 1.832603 0.431475 -0.133644
v 1.712673 0.350071 -0.120847
v 1.731337 0.255087 -0.122838
v 1.805469 0.329637 -0.130749
v 1.832603 1.889173 -0.133644
v 1.630071 2.092848 -0.112032
v 1.805469 1.991010 -0.130749
v 1.731337 2.065561 -0.122838
vn 0.0980 -0.0000 -0.9952
vn 0.2903 -0.0000 -0.9569
vn 0.4714 -0.0000 -0.8819
vn 0.6344 -0.0000 -0.7730
vn 0.7730 -0.0000 -0.6344
vn 0.8819 -0.0000 -0.4714
vn 0.9569 -0.0000 -0.2903
vn 0.9952 -0.0000 0.0980
vn 0.9569 -0.0000 0.2903
vn 0.8819 -0.0000 0.4714
vn 0.7730 -0.0000 0.6344
vn 0.6344 -0.0000 0.7730
vn 0.4714 -0.0000 0.8819
vn 0.2903 -0.0000 0.9569
vn 0.0980 -0.0000 0.9952
vn -0.0980 -0.0000 0.9952
vn -0.2903 -0.0000 0.9569
vn -0.4714 -0.0000 0.8819
vn -0.6344 -0.0000 0.7730
vn -0.7730 -0.0000 0.6344
vn -0.8819 -0.0000 0.4714
vn -0.9569 -0.0000 0.2903
vn -0.9952 -0.0000 0.0980
vn -0.9952 -0.0000 -0.0980
vn -0.9569 -0.0000 -0.2903
vn -0.8819 -0.0000 -0.4714
vn -0.7730 -0.0000 -0.6344
vn -0.6344 -0.0000 -0.7730
vn -0.4714 -0.0000 -0.8819
vn -0.2903 -0.0000 -0.9569
vn -0.0980 -0.0000 -0.9952
vn -0.0000 -1.0000 -0.0000
vn -0.0000 1.0000 -0.0000
vn 0.9952 -0.0000 -0.0980
vn 1.0000 -0.0000 -0.0000
vn -1.0000 -0.0000 -0.0000
vn -0.1061 -0.0000 -0.9944
vn 0.1061 -0.0000 0.9944
vn 0.2576 0.9659 -0.0254
vn 0.7037 0.7071 -0.0693
vn 0.9613 0.2588 -0.0947
vn 0.9613 -0.2588 -0.0947
vn 0.7037 -0.7071 -0.0693
vn 0.2576 -0.9659 -0.0254
vn 0.1062 -0.0000 0.9943
vn -0.1056 0.0001 -0.9944
vn -0.1062 -0.0000 -0.9943
vn 0.1064 -0.0000 0.9943
vt 1.000000 1.000000
vt 0.968750 0.500000
vt 1.000000 0.500000
vt 0.968750 1.000000
vt 0.937500 0.500000
vt 0.937500 1.000000
vt 0.906250 0.500000
vt 0.906250 1.000000
vt 0.875000 0.500000
vt 0.875000 1.000000
vt 0.843750 0.500000
vt 0.843750 1.000000
vt 0.812500 0.500000
vt 0.812500 1.000000
vt 0.781250 0.500000
vt 0.750000 1.000000
vt 0.718750 0.500000
vt 0.750000 0.500000
vt 0.718750 1.000000
vt 0.687500 0.500000
vt 0.687500 1.000000
vt 0.656250 0.500000
vt 0.656250 1.000000
vt 0.625000 0.500000
vt 0.625000 1.000000
vt 0.593750 0.500000
vt 0.593750 1.000000
vt 0.562500 0.500000
vt 0.562500 1.000000
vt 0.531250 0.500000
vt 0.531250 1.000000
vt 0.500000 0.500000
vt 0.500000 1.000000
vt 0.468750 0.500000
vt 0.468750 1.000000
vt 0.437500 0.500000
vt 0.437500 1.000000
vt 0.406250 0.500000
vt 0.406250 1.000000
vt 0.375000 0.500000
vt 0.375000 1.000000
vt 0.343750 0.500000
vt 0.343750 1.000000
vt 0.312500 0.500000
vt 0.312500 1.000000
vt 0.281250 0.500000
vt 0.281250 1.000000
vt 0.250000 0.500000
vt 0.250000 1.000000
vt 0.218750 0.500000
vt 0.218750 1.000000
vt 0.187500 0.500000
vt 0.187500 1.000000
vt 0.156250 0.500000
vt 0.156250 1.000000
vt 0.125000 0.500000
vt 0.125000 1.000000
vt 0.093750 0.500000
vt 0.093750 1.000000
vt 0.062500 0.500000
vt 0.337275 0.039299
vt 0.294493 0.026321
vt 0.062500 1.000000
vt 0.031250 0.500000
vt 0.031250 1.000000
vt 0.000000 0.500000
vt 0.841844 0.028269
vt 0.528269 0.158156
vt 0.658156 0.471731
vt 0.294493 0.473679
vt 0.250000 0.490000
vt 0.250000 0.478061
vt 0.337275 0.460701
vt 0.296822 0.485388
vt 0.376704 0.439626
vt 0.341844 0.471731
vt 0.411263 0.411264
vt 0.383337 0.449553
vt 0.439626 0.376704
vt 0.419706 0.419706
vt 0.460701 0.337275
vt 0.449553 0.383337
vt 0.473679 0.294492
vt 0.471731 0.341844
vt 0.478061 0.250000
vt 0.485388 0.296822
vt 0.473679 0.205507
vt 0.490000 0.250000
vt 0.460701 0.162725
vt 0.485388 0.203178
vt 0.439626 0.123296
vt 0.471731 0.158156
vt 0.411264 0.088737
vt 0.449553 0.116663
vt 0.376704 0.060374
vt 0.419706 0.080294
vt 0.383337 0.050447
vt 0.341844 0.028269
vt 0.250000 0.021939
vt 0.296822 0.014612
vt 0.205508 0.026321
vt 0.250000 0.010000
vt 0.162725 0.039299
vt 0.203178 0.014612
vt 0.123296 0.060374
vt 0.158156 0.028269
vt 0.088737 0.088737
vt 0.116663 0.050447
vt 0.060374 0.123296
vt 0.080294 0.080294
vt 0.039299 0.162725
vt 0.050447 0.116663
vt 0.026321 0.205508
vt 0.028269 0.158156
vt 0.021939 0.250000
vt 0.014612 0.203178
vt 0.026321 0.294493
vt 0.010000 0.250000
vt 0.039299 0.337275
vt 0.014612 0.296822
vt 0.060374 0.376704
vt 0.028269 0.341844
vt 0.088737 0.411264
vt 0.050447 0.383337
vt 0.123296 0.439626
vt 0.080294 0.419706
vt 0.162725 0.460701
vt 0.116663 0.449553
vt 0.205508 0.473679
vt 0.158156 0.471731
vt 0.203178 0.485388
vt 0.774149 0.509598
vt 0.781250 1.000000
vt 0.774149 0.990402
vt 0.757101 0.990402
vt 0.757101 0.509598
vt 0.375000 0.145119
vt 0.625000 0.131676
vt 0.375000 0.131676
vt 0.375000 0.609895
vt 0.625000 0.596451
vt 0.375000 0.596451
vt 0.125000 0.604881
vt 0.125000 0.618324
vt 0.875000 0.604881
vt 0.625000 0.609895
vt 0.875000 0.618324
vt 0.774149 0.562105
vt 0.774113 0.535851
vt 0.774149 0.541119
vt 0.774017 0.516632
vt 0.774149 0.541119
vt 0.773885 0.509598
vt 0.757101 0.541119
vt 0.757101 0.541119
vt 0.757101 0.988057
vt 0.774149 0.988057
vt 0.757078 0.964149
vt 0.774125 0.964149
vt 0.757101 0.937895
vt 0.774149 0.937895
vt 0.757101 0.562105
vt 0.757066 0.535851
vt 0.774149 0.932919
vt 0.774149 0.932919
vt 0.757101 0.990402
vt 0.774149 0.541128
vt 0.774149 0.541128
vt 0.757101 0.541128
vt 0.757101 0.932919
vt 0.757101 0.541128
vt 0.000000 1.000000
vt 0.703178 0.485388
vt 0.750000 0.490000
vt 0.796822 0.485388
vt 0.841844 0.471731
vt 0.883337 0.449553
vt 0.919706 0.419706
vt 0.949553 0.383337
vt 0.971731 0.341844
vt 0.985388 0.296822
vt 0.990000 0.250000
vt 0.985388 0.203178
vt 0.971731 0.158156
vt 0.949553 0.116663
vt 0.919706 0.080294
vt 0.883337 0.050447
vt 0.796822 0.014612
vt 0.658156 0.028269
vt 0.750000 0.010000
vt 0.703178 0.014612
vt 0.616663 0.050447
vt 0.580294 0.080294
vt 0.550447 0.116663
vt 0.514612 0.203178
vt 0.528269 0.341844
vt 0.510000 0.250000
vt 0.514612 0.296822
vt 0.550447 0.383337
vt 0.580294 0.419706
vt 0.616663 0.449553
vt 0.625000 0.145119
vt 0.757101 0.932919
s 0
usemtl 
f 66/1/1 3/2/1 1/3/1
f 65/4/2 5/5/2 3/2/2
f 67/6/3 7/7/3 5/5/3
f 68/8/4 9/9/4 7/7/4
f 69/10/5 11/11/5 9/9/5
f 70/12/6 13/13/6 11/11/6
f 71/14/7 130/15/7 13/13/7
f 132/16/8 19/17/8 131/18/8
f 74/19/9 21/20/9 19/17/9
f 75/21/10 23/22/10 21/20/10
f 76/23/11 25/24/11 23/22/11
f 77/25/12 27/26/12 25/24/12
f 78/27/13 29/28/13 27/26/13
f 79/29/14 31/30/14 29/28/14
f 80/31/15 33/32/15 31/30/15
f 81/33/16 35/34/16 33/32/16
f 82/35/17 37/36/17 35/34/17
f 83/37/18 39/38/18 37/36/18
f 84/39/19 41/40/19 39/38/19
f 85/41/20 43/42/20 41/40/20
f 86/43/21 45/44/21 43/42/21
f 87/45/22 47/46/22 45/44/22
f 88/47/23 49/48/23 47/46/23
f 89/49/24 51/50/24 49/48/24
f 90/51/25 53/52/25 51/50/25
f 91/53/26 55/54/26 53/52/26
f 92/55/27 57/56/27 55/54/27
f 93/57/28 59/58/28 57/56/28
f 94/59/29 61/60/29 59/58/29
f 30/61/30 112/62/30 32/62/30
f 95/63/30 63/64/30 61/60/30
f 96/65/31 1/66/31 63/64/31
f 29/67/32 45/68/32 61/69/32
f 4/70/33 66/71/33 2/72/33
f 6/73/33 65/74/33 4/70/33
f 8/75/33 67/76/33 6/73/33
f 10/77/33 68/78/33 8/75/33
f 12/79/33 69/80/33 10/77/33
f 14/81/33 70/82/33 12/79/33
f 16/83/33 71/84/33 14/81/33
f 18/85/33 129/86/33 16/83/33
f 20/87/33 132/88/33 18/85/33
f 22/89/33 74/90/33 20/87/33
f 24/91/33 75/92/33 22/89/33
f 26/93/33 76/94/33 24/91/33
f 28/95/33 77/96/33 26/93/33
f 30/61/33 78/97/33 28/95/33
f 32/62/33 79/98/33 30/61/33
f 34/99/33 80/100/33 32/62/33
f 36/101/33 81/102/33 34/99/33
f 38/103/33 82/104/33 36/101/33
f 40/105/33 83/106/33 38/103/33
f 42/107/33 84/108/33 40/105/33
f 44/109/33 85/110/33 42/107/33
f 46/111/33 86/112/33 44/109/33
f 48/113/33 87/114/33 46/111/33
f 50/115/33 88/116/33 48/113/33
f 52/117/33 89/118/33 50/115/33
f 54/119/33 90/120/33 52/117/33
f 56/121/33 91/122/33 54/119/33
f 58/123/33 92/124/33 56/121/33
f 60/125/33 93/126/33 58/123/33
f 62/127/33 94/128/33 60/125/33
f 64/129/33 95/130/33 62/127/33
f 2/72/33 96/131/33 64/129/33
f 128/129/33 120/113/33 112/62/33
f 4/70/17 99/73/17 6/73/17
f 58/123/12 126/125/12 60/125/12
f 32/62/31 113/99/31 34/99/31
f 6/73/18 100/75/18 8/75/18
f 62/127/13 126/125/13 127/127/13
f 34/99/1 114/101/1 36/101/1
f 8/75/19 101/77/19 10/77/19
f 62/127/14 128/129/14 64/129/14
f 36/101/2 115/103/2 38/103/2
f 10/77/20 102/79/20 12/79/20
f 2/72/15 128/129/15 98/72/15
f 40/105/3 115/103/3 116/105/3
f 12/79/21 103/81/21 14/81/21
f 40/105/4 117/107/4 42/107/4
f 14/81/22 104/83/22 16/83/22
f 42/107/5 118/109/5 44/109/5
f 16/83/23 105/85/23 18/85/23
f 44/109/6 119/111/6 46/111/6
f 18/85/24 106/87/24 20/87/24
f 46/111/7 120/113/7 48/113/7
f 20/87/25 107/89/25 22/89/25
f 48/113/34 121/115/34 50/115/34
f 22/89/26 108/91/26 24/91/26
f 50/115/8 122/117/8 52/117/8
f 24/91/27 109/93/27 26/93/27
f 52/117/9 123/119/9 54/119/9
f 26/93/28 110/95/28 28/95/28
f 54/119/10 124/121/10 56/121/10
f 28/95/29 111/61/29 30/61/29
f 4/70/16 98/72/16 97/70/16
f 56/121/11 125/123/11 58/123/11
f 15/132/34 129/133/34 72/134/34
f 15/132/34 131/18/34 130/15/34
f 72/134/34 132/16/34 73/135/34
f 73/135/34 131/18/34 17/136/34
f 135/137/35 138/138/35 137/139/35
f 139/140/36 133/141/36 136/142/36
f 139/140/33 135/143/33 137/144/33
f 134/145/32 140/146/32 138/147/32
f 145/148/37 148/149/37 147/150/37
f 148/149/37 149/151/37 147/152/37
f 149/151/37 146/153/37 147/152/37
f 150/136/38 153/136/38 152/154/38
f 153/136/38 154/136/38 152/155/38
f 154/136/38 151/136/38 152/155/38
f 141/134/39 158/156/39 143/157/39
f 143/157/40 157/158/40 144/159/40
f 144/159/41 155/160/41 142/161/41
f 151/162/42 148/149/42 145/148/42
f 154/163/43 149/132/43 148/149/43
f 153/136/44 146/132/44 149/132/44
f 133/164/37 134/165/37 141/134/37
f 72/134/33 156/166/33 141/134/33
f 142/161/34 151/162/34 145/148/34
f 15/132/32 150/136/32 17/136/32
f 146/132/37 135/167/37 136/168/37
f 17/136/38 137/169/38 138/170/38
f 150/136/45 152/154/45 139/171/45
f 66/1/1 65/4/1 3/2/1
f 65/4/2 67/6/2 5/5/2
f 67/6/3 68/8/3 7/7/3
f 68/8/4 69/10/4 9/9/4
f 69/10/5 70/12/5 11/11/5
f 70/12/6 71/14/6 13/13/6
f 71/14/7 129/133/7 130/15/7
f 132/16/8 74/19/8 19/17/8
f 74/19/9 75/21/9 21/20/9
f 75/21/10 76/23/10 23/22/10
f 76/23/11 77/25/11 25/24/11
f 77/25/12 78/27/12 27/26/12
f 78/27/13 79/29/13 29/28/13
f 79/29/14 80/31/14 31/30/14
f 80/31/15 81/33/15 33/32/15
f 81/33/16 82/35/16 35/34/16
f 82/35/17 83/37/17 37/36/17
f 83/37/18 84/39/18 39/38/18
f 84/39/19 85/41/19 41/40/19
f 85/41/20 86/43/20 43/42/20
f 86/43/21 87/45/21 45/44/21
f 87/45/22 88/47/22 47/46/22
f 88/47/23 89/49/23 49/48/23
f 89/49/24 90/51/24 51/50/24
f 90/51/25 91/53/25 53/52/25
f 91/53/26 92/55/26 55/54/26
f 92/55/27 93/57/27 57/56/27
f 93/57/28 94/59/28 59/58/28
f 94/59/29 95/63/29 61/60/29
f 30/61/30 111/61/30 112/62/30
f 95/63/30 96/65/30 63/64/30
f 96/65/31 66/172/31 1/66/31
f 61/69/32 63/173/32 1/174/32
f 1/174/32 3/175/32 61/69/32
f 3/175/32 5/176/32 61/69/32
f 5/176/32 7/177/32 9/178/32
f 9/178/32 11/179/32 13/180/32
f 13/180/32 130/181/32 131/182/32
f 131/182/32 19/183/32 13/180/32
f 19/183/32 21/184/32 13/180/32
f 21/184/32 23/185/32 25/186/32
f 25/186/32 27/187/32 29/67/32
f 29/67/32 31/188/32 37/189/32
f 31/188/32 33/190/32 37/189/32
f 33/190/32 35/191/32 37/189/32
f 37/189/32 39/192/32 41/193/32
f 41/193/32 43/194/32 45/68/32
f 45/68/32 47/195/32 53/196/32
f 47/195/32 49/197/32 53/196/32
f 49/197/32 51/198/32 53/196/32
f 53/196/32 55/199/32 57/200/32
f 57/200/32 59/201/32 61/69/32
f 5/176/32 9/178/32 61/69/32
f 9/178/32 13/180/32 61/69/32
f 21/184/32 25/186/32 13/180/32
f 25/186/32 29/67/32 13/180/32
f 37/189/32 41/193/32 29/67/32
f 41/193/32 45/68/32 29/67/32
f 53/196/32 57/200/32 45/68/32
f 57/200/32 61/69/32 45/68/32
f 61/69/32 13/180/32 29/67/32
f 4/70/33 65/74/33 66/71/33
f 6/73/33 67/76/33 65/74/33
f 8/75/33 68/78/33 67/76/33
f 10/77/33 69/80/33 68/78/33
f 12/79/33 70/82/33 69/80/33
f 14/81/33 71/84/33 70/82/33
f 16/83/33 129/86/33 71/84/33
f 18/85/33 132/88/33 129/86/33
f 20/87/33 74/90/33 132/88/33
f 22/89/33 75/92/33 74/90/33
f 24/91/33 76/94/33 75/92/33
f 26/93/33 77/96/33 76/94/33
f 28/95/33 78/97/33 77/96/33
f 30/61/33 79/98/33 78/97/33
f 32/62/33 80/100/33 79/98/33
f 34/99/33 81/102/33 80/100/33
f 36/101/33 82/104/33 81/102/33
f 38/103/33 83/106/33 82/104/33
f 40/105/33 84/108/33 83/106/33
f 42/107/33 85/110/33 84/108/33
f 44/109/33 86/112/33 85/110/33
f 46/111/33 87/114/33 86/112/33
f 48/113/33 88/116/33 87/114/33
f 50/115/33 89/118/33 88/116/33
f 52/117/33 90/120/33 89/118/33
f 54/119/33 91/122/33 90/120/33
f 56/121/33 92/124/33 91/122/33
f 58/123/33 93/126/33 92/124/33
f 60/125/33 94/128/33 93/126/33
f 62/127/33 95/130/33 94/128/33
f 64/129/33 96/131/33 95/130/33
f 2/72/33 66/71/33 96/131/33
f 112/62/33 111/61/33 110/95/33
f 110/95/33 109/93/33 108/91/33
f 108/91/33 107/89/33 106/87/33
f 106/87/33 105/85/33 104/83/33
f 104/83/33 103/81/33 100/75/33
f 103/81/33 102/79/33 100/75/33
f 102/79/33 101/77/33 100/75/33
f 100/75/33 99/73/33 97/70/33
f 97/70/33 98/72/33 128/129/33
f 128/129/33 127/127/33 126/125/33
f 126/125/33 125/123/33 124/121/33
f 124/121/33 123/119/33 122/117/33
f 122/117/33 121/115/33 120/113/33
f 120/113/33 119/111/33 116/105/33
f 119/111/33 118/109/33 116/105/33
f 118/109/33 117/107/33 116/105/33
f 116/105/33 115/103/33 114/101/33
f 114/101/33 113/99/33 112/62/33
f 112/62/33 110/95/33 104/83/33
f 110/95/33 108/91/33 104/83/33
f 108/91/33 106/87/33 104/83/33
f 100/75/33 97/70/33 104/83/33
f 97/70/33 128/129/33 104/83/33
f 128/129/33 126/125/33 124/121/33
f 124/121/33 122/117/33 128/129/33
f 122/117/33 120/113/33 128/129/33
f 116/105/33 114/101/33 120/113/33
f 114/101/33 112/62/33 120/113/33
f 112/62/33 104/83/33 128/129/33
f 4/70/17 97/70/17 99/73/17
f 58/123/12 125/123/12 126/125/12
f 32/62/31 112/62/31 113/99/31
f 6/73/18 99/73/18 100/75/18
f 62/127/13 60/125/13 126/125/13
f 34/99/1 113/99/1 114/101/1
f 8/75/19 100/75/19 101/77/19
f 62/127/14 127/127/14 128/129/14
f 36/101/2 114/101/2 115/103/2
f 10/77/20 101/77/20 102/79/20
f 2/72/15 64/129/15 128/129/15
f 40/105/3 38/103/3 115/103/3
f 12/79/21 102/79/21 103/81/21
f 40/105/4 116/105/4 117/107/4
f 14/81/22 103/81/22 104/83/22
f 42/107/5 117/107/5 118/109/5
f 16/83/23 104/83/23 105/85/23
f 44/109/6 118/109/6 119/111/6
f 18/85/24 105/85/24 106/87/24
f 46/111/7 119/111/7 120/113/7
f 20/87/25 106/87/25 107/89/25
f 48/113/34 120/113/34 121/115/34
f 22/89/26 107/89/26 108/91/26
f 50/115/8 121/115/8 122/117/8
f 24/91/27 108/91/27 109/93/27
f 52/117/9 122/117/9 123/119/9
f 26/93/28 109/93/28 110/95/28
f 54/119/10 123/119/10 124/121/10
f 28/95/29 110/95/29 111/61/29
f 4/70/16 2/72/16 98/72/16
f 56/121/11 124/121/11 125/123/11
f 15/132/34 130/15/34 129/133/34
f 15/132/34 17/136/34 131/18/34
f 72/134/34 129/133/34 132/16/34
f 73/135/34 132/16/34 131/18/34
f 135/137/35 134/202/35 138/138/35
f 139/140/36 140/146/36 133/141/36
f 139/140/33 136/142/33 135/143/33
f 134/145/32 133/141/32 140/146/32
f 141/134/39 156/166/39 158/156/39
f 143/157/40 158/156/40 157/158/40
f 144/159/41 157/158/41 155/160/41
f 151/162/42 154/163/42 148/149/42
f 154/163/43 153/136/43 149/132/43
f 153/136/44 150/136/44 146/132/44
f 135/167/37 15/132/37 134/165/37
f 15/132/37 72/134/37 134/165/37
f 72/134/37 141/134/37 134/165/37
f 141/134/37 143/157/37 133/164/37
f 143/157/37 144/159/37 133/164/37
f 144/159/37 142/161/37 133/164/37
f 142/161/37 145/148/37 133/164/37
f 145/148/46 147/150/46 136/168/46
f 133/164/37 145/148/37 136/168/37
f 72/134/33 73/135/33 156/166/33
f 142/161/34 155/160/34 151/162/34
f 15/132/32 146/132/32 150/136/32
f 136/168/47 147/150/47 146/132/47
f 146/132/37 15/132/37 135/167/37
f 140/203/38 139/171/38 151/162/38
f 139/171/48 152/154/48 151/162/48
f 151/162/38 155/160/38 140/203/38
f 155/160/38 157/158/38 140/203/38
f 157/158/38 158/156/38 140/203/38
f 158/156/38 156/166/38 140/203/38
f 156/166/38 73/135/38 138/170/38
f 140/203/38 156/166/38 138/170/38
f 73/135/38 17/136/38 138/170/38
f 139/171/38 137/169/38 150/136/38
f 137/169/38 17/136/38 150/136/38
