# Blender 5.1.2
# www.blender.org
mtllib house.mtl
o Plane
v -1.000000 0.000000 2.000000
v 1.000000 0.000000 2.000000
v -1.000000 0.000000 1.000000
v 1.000000 0.000000 1.000000
v -2.000000 0.000000 2.000000
v -2.000000 0.000000 1.000000
v 1.000000 0.000000 -2.000000
v -1.000000 0.000000 -1.000000
v 1.000000 0.000000 -1.000000
v -2.000000 0.000000 -2.000000
v -2.000000 0.000000 -1.000000
v -1.000000 0.000000 1.000000
v -1.000000 0.000000 2.000000
v 1.000000 0.000000 2.000000
v 1.000000 0.000000 1.000000
v -2.000000 0.000000 1.000000
v -2.000000 0.000000 2.000000
v -2.000000 0.000000 -1.000000
v -1.000000 0.000000 -1.000000
v 0.353682 0.864391 -2.026897
v 1.000000 0.000000 -1.000000
v -1.314641 0.864391 -2.026897
v -1.000000 3.000000 1.000000
v -1.000000 3.000000 2.000000
v 1.000000 3.000000 2.000000
v 1.000000 3.000000 1.000000
v -2.000000 3.000000 1.000000
v -2.000000 3.000000 2.000000
v -2.000000 3.000000 -1.000000
v -1.000000 3.000000 -1.000000
v 0.353682 1.736455 -2.026897
v 1.000000 3.000000 -1.000000
v -1.314641 1.736455 -2.026897
v -2.000000 3.000000 -2.000000
v -2.000000 0.000000 -2.000000
v 1.000000 3.000000 -2.000000
v 1.000000 0.000000 -2.000000
v 0.353682 0.864391 -2.079431
v -1.314641 0.864391 -2.079431
v 0.393556 1.736455 -2.079431
v -1.354516 1.736455 -2.079431
v -1.356121 1.777934 -2.026897
v -1.356121 0.822912 -2.026897
v 0.395161 1.777934 -2.026897
v 0.395161 0.822912 -2.026897
v -1.356121 1.777934 -2.079431
v -1.356121 0.822912 -2.079431
v 0.395161 1.777934 -2.079431
v 0.395161 0.822912 -2.079431
v -1.314641 0.864391 -2.135141
v 0.353682 0.864391 -2.135141
v 0.395161 0.822912 -2.135141
v -1.356121 0.822912 -2.135141
v 0.393556 1.736455 -2.163703
v -1.354516 1.736455 -2.163703
v 0.395161 1.777934 -2.163703
v -1.356121 1.777934 -2.163703
v -1.000000 2.211048 1.000000
v 1.000000 2.211048 1.000000
v -2.000000 2.211048 -2.000000
v 1.000000 2.211048 -1.000000
v 1.000000 2.211048 -2.000000
v -2.000000 2.211048 -1.000000
v -2.000000 2.211048 1.000000
v -2.000000 2.211048 2.000000
v -1.000000 2.211048 -1.000000
v -1.000000 2.211048 2.000000
v 1.000000 2.211048 2.000000
v -1.314641 1.507116 -2.026897
v 0.353682 1.507116 -2.026897
v -1.344030 1.507116 -2.079431
v 0.383070 1.507116 -2.079431
v -1.356121 1.526779 -2.026897
v 0.395161 1.526779 -2.026897
v -1.356121 1.526779 -2.079431
v 0.395161 1.526779 -2.079431
vn -0.0000 1.0000 -0.0000
vn 1.0000 -0.0000 -0.0000
vn -1.0000 -0.0000 -0.0000
vn -0.0000 -0.0000 1.0000
vn -0.0000 -1.0000 -0.0000
vn -0.0000 -0.0000 -1.0000
vn 0.0392 -0.0000 0.9992
vn -0.0000 -0.0213 0.9998
vn -0.0416 -0.0000 0.9991
vn -0.0000 0.0311 0.9995
vn 0.7071 -0.7071 -0.0000
vn -0.7071 -0.7071 -0.0000
vn -0.9993 0.0387 -0.0000
vn 0.9993 0.0387 -0.0000
vt 1.000000 0.000000
vt 0.000000 1.000000
vt 0.000000 0.000000
vt 1.000000 1.000000
vt 0.223983 0.000000
vt 0.223983 0.000000
vt 0.776017 0.000000
vt 0.223983 0.000000
s 0
f 2/1/1 3/2/1 1/3/1
f 3/2/1 5/3/1 1/3/1
f 3/2/1 11/2/1 6/2/1
f 64/2/2 28/3/2 65/3/2
f 63/2/2 27/2/2 64/2/2
f 61/4/3 36/1/3 62/1/3
f 59/4/4 23/2/4 58/2/4
f 7/1/1 21/4/1 37/1/1
f 6/2/1 18/2/1 16/2/1
f 5/3/1 16/2/1 17/3/1
f 9/4/1 19/2/1 21/4/1
f 2/1/1 13/3/1 14/1/1
f 8/2/1 12/2/1 19/2/1
f 1/3/1 17/3/1 13/3/1
f 11/2/1 35/3/1 18/2/1
f 4/4/1 14/1/1 15/4/1
f 3/2/1 15/4/1 12/2/1
f 23/2/5 25/1/5 24/3/5
f 28/3/5 23/2/5 24/3/5
f 29/2/5 23/2/5 27/2/5
f 30/2/5 29/2/5 34/3/5
f 66/2/6 32/4/6 61/4/6
f 67/3/6 25/1/6 68/1/6
f 58/2/3 30/2/3 66/2/3
f 65/3/6 24/3/6 67/3/6
f 60/3/2 29/2/2 63/2/2
f 68/1/3 26/4/3 59/4/3
f 19/2/5 11/2/5 35/3/5
f 33/5/7 60/3/7 69/6/7
f 33/5/8 36/1/8 34/3/8
f 20/7/9 62/1/9 70/7/9
f 22/8/10 37/1/10 20/7/10
f 46/5/5 56/7/5 48/7/5
f 22/8/6 73/8/6 69/6/6
f 47/3/11 50/3/11 39/3/11
f 31/7/6 74/7/6 70/7/6
f 44/7/3 76/7/3 74/7/3
f 43/8/2 75/5/2 73/8/2
f 45/7/1 47/8/1 43/8/1
f 42/5/5 48/7/5 44/7/5
f 20/7/6 43/8/6 22/8/6
f 33/5/6 44/7/6 31/7/6
f 72/3/4 49/3/4 76/3/4
f 41/3/4 75/3/4 71/3/4
f 50/3/4 52/3/4 51/3/4
f 39/3/5 51/3/5 38/3/5
f 38/3/12 52/3/12 49/3/12
f 49/7/1 53/8/1 47/8/1
f 54/3/4 57/3/4 55/3/4
f 48/3/13 54/3/13 40/3/13
f 40/3/1 55/3/1 41/3/1
f 41/3/14 57/3/14 46/3/14
f 71/3/4 47/3/4 39/3/4
f 40/3/4 76/3/4 48/3/4
f 73/8/2 46/5/2 42/5/2
f 74/7/3 49/7/3 45/7/3
f 20/7/6 74/7/6 45/7/6
f 33/5/6 73/8/6 42/5/6
f 31/7/9 62/1/9 36/1/9
f 22/8/7 60/3/7 35/3/7
f 14/1/3 59/4/3 15/4/3
f 35/3/2 63/2/2 18/2/2
f 17/3/6 67/3/6 13/3/6
f 12/2/3 66/2/3 19/2/3
f 13/3/6 68/1/6 14/1/6
f 19/2/6 61/4/6 21/4/6
f 15/4/4 58/2/4 12/2/4
f 21/4/3 62/1/3 37/1/3
f 18/2/2 64/2/2 16/2/2
f 16/2/2 65/3/2 17/3/2
f 59/4/1 66/2/1 58/2/1
f 32/4/3 59/4/3 26/4/3
f 2/1/1 4/4/1 3/2/1
f 3/2/1 6/2/1 5/3/1
f 3/2/1 8/2/1 11/2/1
f 64/2/2 27/2/2 28/3/2
f 63/2/2 29/2/2 27/2/2
f 61/4/3 32/4/3 36/1/3
f 59/4/4 26/4/4 23/2/4
f 7/1/1 9/4/1 21/4/1
f 6/2/1 11/2/1 18/2/1
f 5/3/1 6/2/1 16/2/1
f 9/4/1 8/2/1 19/2/1
f 2/1/1 1/3/1 13/3/1
f 8/2/1 3/2/1 12/2/1
f 1/3/1 5/3/1 17/3/1
f 11/2/1 10/3/1 35/3/1
f 4/4/1 2/1/1 14/1/1
f 3/2/1 4/4/1 15/4/1
f 23/2/5 26/4/5 25/1/5
f 28/3/5 27/2/5 23/2/5
f 29/2/5 30/2/5 23/2/5
f 34/3/5 36/1/5 30/2/5
f 36/1/5 32/4/5 30/2/5
f 66/2/6 30/2/6 32/4/6
f 67/3/6 24/3/6 25/1/6
f 58/2/3 23/2/3 30/2/3
f 65/3/6 28/3/6 24/3/6
f 60/3/2 34/3/2 29/2/2
f 68/1/3 25/1/3 26/4/3
f 35/3/5 37/1/5 19/2/5
f 37/1/5 21/4/5 19/2/5
f 21/4/1 8/2/1 19/2/1
f 33/5/7 34/3/7 60/3/7
f 33/5/8 31/7/8 36/1/8
f 20/7/9 37/1/9 62/1/9
f 22/8/10 35/3/10 37/1/10
f 46/5/5 57/5/5 56/7/5
f 22/8/6 43/8/6 73/8/6
f 47/3/11 53/3/11 50/3/11
f 31/7/6 44/7/6 74/7/6
f 44/7/3 48/7/3 76/7/3
f 43/8/2 47/8/2 75/5/2
f 45/7/1 49/7/1 47/8/1
f 42/5/5 46/5/5 48/7/5
f 20/7/6 45/7/6 43/8/6
f 33/5/6 42/5/6 44/7/6
f 72/3/4 38/3/4 49/3/4
f 41/3/4 46/3/4 75/3/4
f 50/3/4 53/3/4 52/3/4
f 39/3/5 50/3/5 51/3/5
f 38/3/12 51/3/12 52/3/12
f 49/7/1 52/7/1 53/8/1
f 54/3/4 56/3/4 57/3/4
f 48/3/13 56/3/13 54/3/13
f 40/3/1 54/3/1 55/3/1
f 41/3/14 55/3/14 57/3/14
f 71/3/4 75/3/4 47/3/4
f 40/3/4 72/3/4 76/3/4
f 73/8/2 75/5/2 46/5/2
f 74/7/3 76/7/3 49/7/3
f 20/7/6 70/7/6 74/7/6
f 33/5/6 69/6/6 73/8/6
f 31/7/9 70/7/9 62/1/9
f 22/8/7 69/6/7 60/3/7
f 14/1/3 68/1/3 59/4/3
f 35/3/2 60/3/2 63/2/2
f 17/3/6 65/3/6 67/3/6
f 12/2/3 58/2/3 66/2/3
f 13/3/6 67/3/6 68/1/6
f 19/2/6 66/2/6 61/4/6
f 15/4/4 59/4/4 58/2/4
f 21/4/3 61/4/3 62/1/3
f 18/2/2 63/2/2 64/2/2
f 16/2/2 64/2/2 65/3/2
f 59/4/1 61/4/1 66/2/1
f 32/4/3 61/4/3 59/4/3
o Cone
v -2.904622 2.863503 -2.340523
v 1.776425 2.863503 -2.340523
v 1.776425 2.863503 2.340523
v -2.904622 2.863503 2.340523
v -0.564099 4.857526 0.000000
vn -0.0000 0.7612 -0.6485
vn 0.6485 0.7612 -0.0000
vn -0.0000 -1.0000 -0.0000
vn -0.0000 0.7612 0.6485
vn -0.6485 0.7612 -0.0000
vt 0.250000 0.490000
vt 0.250000 0.250000
vt 0.490000 0.250000
vt 0.250000 0.010000
vt 0.990000 0.250000
vt 0.510000 0.250000
vt 0.750000 0.490000
vt 0.010000 0.250000
vt 0.750000 0.010000
s 0
f 77/9/15 81/10/15 78/11/15
f 78/11/16 81/10/16 79/12/16
f 78/13/17 80/14/17 77/15/17
f 79/12/18 81/10/18 80/16/18
f 80/16/19 81/10/19 77/9/19
f 78/13/17 79/17/17 80/14/17
o Cube
v -2.086635 3.518256 -0.707687
v -2.032557 4.960498 -0.761765
v -2.086635 3.518256 -1.436793
v -2.032557 4.960498 -1.382715
v -1.357529 3.518256 -0.707687
v -1.411607 4.960498 -0.761765
v -1.357529 3.518256 -1.436793
v -1.411607 4.960498 -1.382715
v -2.086635 4.960498 -0.707687
v -2.086635 4.960498 -1.436793
v -1.357529 4.960498 -1.436793
v -1.357529 4.960498 -0.707687
v -2.032557 5.035688 -0.761765
v -2.032557 5.035688 -1.382715
v -1.411607 5.035688 -1.382715
v -1.411607 5.035688 -0.761765
v -2.096558 5.035688 -0.697764
v -2.096558 5.035688 -1.446716
v -1.347606 5.035688 -1.446716
v -1.347606 5.035688 -0.697764
v -2.096558 5.297817 -0.697764
v -2.096558 5.297817 -1.446716
v -1.347606 5.297817 -1.446716
v -1.347606 5.297817 -0.697764
vn -1.0000 -0.0000 -0.0000
vn -0.0000 -0.0000 -1.0000
vn 1.0000 -0.0000 -0.0000
vn -0.0000 -0.0000 1.0000
vn -0.0000 -1.0000 -0.0000
vn -0.0000 1.0000 -0.0000
vt 0.625000 0.000000
vt 0.375000 0.250000
vt 0.375000 0.000000
vt 0.625000 0.250000
vt 0.375000 0.500000
vt 0.625000 0.500000
vt 0.375000 0.750000
vt 0.625000 0.750000
vt 0.375000 1.000000
vt 0.125000 0.750000
vt 0.125000 0.500000
vt 0.643543 0.731457
vt 0.856457 0.731457
vt 0.856457 0.518543
vt 0.875000 0.750000
vt 0.643543 0.518543
vt 0.875000 0.500000
vt 0.625000 1.000000
s 0
f 90/18/20 84/19/20 82/20/20
f 91/21/21 88/22/21 84/19/21
f 92/23/22 86/24/22 88/22/22
f 93/25/23 82/26/23 86/24/23
f 88/22/24 82/27/24 84/28/24
f 87/29/23 94/30/23 83/30/23
f 85/31/25 90/32/25 83/30/25
f 89/33/25 91/34/25 85/31/25
f 87/29/25 92/23/25 89/33/25
f 83/30/25 93/25/25 87/29/25
f 95/31/24 100/33/24 96/33/24
f 85/31/21 96/33/21 89/33/21
f 89/33/22 97/29/22 87/29/22
f 83/30/20 95/31/20 85/31/20
f 100/33/22 105/29/22 101/29/22
f 97/29/24 100/33/24 101/29/24
f 94/30/24 99/31/24 95/31/24
f 97/29/24 98/30/24 94/30/24
f 103/31/25 105/29/25 104/33/25
f 98/30/20 103/31/20 99/31/20
f 101/29/23 102/30/23 98/30/23
f 99/31/21 104/33/21 100/33/21
f 90/18/20 91/21/20 84/19/20
f 91/21/21 92/23/21 88/22/21
f 92/23/22 93/25/22 86/24/22
f 93/25/23 90/35/23 82/26/23
f 88/22/24 86/24/24 82/27/24
f 87/29/23 97/29/23 94/30/23
f 85/31/25 91/34/25 90/32/25
f 89/33/25 92/23/25 91/34/25
f 87/29/25 93/25/25 92/23/25
f 83/30/25 90/32/25 93/25/25
f 95/31/24 99/31/24 100/33/24
f 85/31/21 95/31/21 96/33/21
f 89/33/22 96/33/22 97/29/22
f 83/30/20 94/30/20 95/31/20
f 100/33/22 104/33/22 105/29/22
f 97/29/24 96/33/24 100/33/24
f 94/30/24 98/30/24 99/31/24
f 97/29/24 101/29/24 98/30/24
f 103/31/25 102/30/25 105/29/25
f 98/30/20 102/30/20 103/31/20
f 101/29/23 105/29/23 102/30/23
f 99/31/21 103/31/21 104/33/21
o Cube.001
v 2.564880 -0.213669 1.334174
v 2.564880 0.213669 1.334174
v 2.564880 -0.213669 1.239201
v 2.564880 0.213669 1.239201
v 2.659853 -0.213669 1.334174
v 2.659853 0.213669 1.334174
v 2.659853 -0.213669 1.239201
v 2.659853 0.213669 1.239201
vn -1.0000 -0.0000 -0.0000
vn -0.0000 -0.0000 -1.0000
vn 1.0000 -0.0000 -0.0000
vn -0.0000 -0.0000 1.0000
vn -0.0000 -1.0000 -0.0000
vn -0.0000 1.0000 -0.0000
vt 0.625000 0.000000
vt 0.375000 0.250000
vt 0.375000 0.000000
vt 0.625000 0.250000
vt 0.375000 0.500000
vt 0.625000 0.500000
vt 0.375000 0.750000
vt 0.625000 0.750000
vt 0.375000 1.000000
vt 0.125000 0.750000
vt 0.125000 0.500000
vt 0.875000 0.500000
vt 0.625000 1.000000
vt 0.875000 0.750000
s 0
f 107/36/26 108/37/26 106/38/26
f 109/39/27 112/40/27 108/37/27
f 113/41/28 110/42/28 112/40/28
f 111/43/29 106/44/29 110/42/29
f 112/40/30 106/45/30 108/46/30
f 109/47/31 111/43/31 113/41/31
f 107/36/26 109/39/26 108/37/26
f 109/39/27 113/41/27 112/40/27
f 113/41/28 111/43/28 110/42/28
f 111/43/29 107/48/29 106/44/29
f 112/40/30 110/42/30 106/45/30
f 109/47/31 107/49/31 111/43/31
o Cube.002
v 2.355452 0.119619 1.419414
v 2.355452 0.119619 1.141779
v 2.882704 0.119619 1.419414
v 2.882704 0.119619 1.141779
v 2.355452 0.258437 1.419414
v 2.355452 0.397254 1.280597
v 2.355452 0.301334 1.412620
v 2.355452 0.340031 1.392902
v 2.355452 0.370742 1.362191
v 2.355452 0.390460 1.323493
v 2.355452 0.397254 1.280597
v 2.355452 0.258437 1.141779
v 2.355452 0.390460 1.237700
v 2.355452 0.370742 1.199002
v 2.355452 0.340031 1.168291
v 2.355452 0.301334 1.148574
v 2.882704 0.397254 1.280597
v 2.882704 0.258437 1.419414
v 2.882704 0.390460 1.323493
v 2.882704 0.370742 1.362191
v 2.882704 0.340031 1.392902
v 2.882704 0.301334 1.412620
v 2.882704 0.258437 1.141779
v 2.882704 0.397254 1.280597
v 2.882704 0.301334 1.148574
v 2.882704 0.340031 1.168291
v 2.882704 0.370742 1.199002
v 2.882704 0.390460 1.237700
vn -0.0000 -1.0000 -0.0000
vn -0.0000 0.9877 -0.1564
vn -0.0000 0.8910 -0.4540
vn -0.0000 0.7071 -0.7071
vn -0.0000 0.4540 -0.8910
vn -0.0000 0.1564 -0.9877
vn -0.0000 0.9877 0.1564
vn -0.0000 0.8910 0.4540
vn -0.0000 0.7071 0.7071
vn -0.0000 0.4540 0.8910
vn -0.0000 0.1564 0.9877
vn -0.0000 -0.0000 1.0000
vn -1.0000 -0.0000 -0.0000
vn -0.0000 1.0000 -0.0000
vn -0.0000 -0.0000 -1.0000
vn 1.0000 -0.0000 -0.0000
vt 0.375000 0.500000
vt 0.125000 0.750000
vt 0.125000 0.500000
vt 0.625000 0.625000
vt 0.875000 0.586373
vt 0.875000 0.625000
vt 0.622961 0.586373
vt 0.875000 0.500000
vt 0.617042 0.517176
vt 0.573473 0.242042
vt 0.613064 0.224237
vt 0.573473 0.507958
vt 0.538627 0.247961
vt 0.538627 0.502039
vt 0.500000 0.250000
vt 0.622961 0.663627
vt 0.875000 0.663627
vt 0.617042 0.732824
vt 0.625000 1.000000
vt 0.573473 0.742042
vt 0.573473 1.000000
vt 0.538627 0.747961
vt 0.538627 1.000000
vt 0.500000 0.750000
vt 0.375000 1.000000
vt 0.375000 0.750000
vt 0.618882 0.086373
vt 0.625000 0.125000
vt 0.375000 0.250000
vt 0.500000 0.500000
vt 0.875000 0.750000
vt 0.500000 1.000000
vt 0.375000 0.000000
vt 0.500000 0.000000
vt 0.538627 0.006118
vt 0.573473 0.023873
vt 0.601127 0.051527
vt 0.618882 0.163627
s 0
f 117/50/32 114/51/32 115/52/32
f 137/53/33 126/54/33 124/55/33
f 141/56/34 127/57/34 126/54/34
f 140/58/35 128/59/35 127/60/35
f 139/61/36 129/62/36 128/59/36
f 138/63/37 125/64/37 129/62/37
f 119/55/38 132/65/38 130/53/38
f 123/66/39 133/67/39 132/65/39
f 122/68/40 134/69/40 133/67/40
f 121/70/41 135/71/41 134/69/41
f 120/72/42 131/73/42 135/71/42
f 131/73/43 114/74/43 116/75/43
f 123/76/44 119/77/44 128/59/44
f 137/53/45 119/55/45 130/53/45
f 125/64/46 117/50/46 115/78/46
f 141/56/47 137/53/47 134/69/47
f 117/50/32 116/75/32 114/51/32
f 137/53/33 141/56/33 126/54/33
f 141/56/34 140/58/34 127/57/34
f 140/58/35 139/61/35 128/59/35
f 139/61/36 138/63/36 129/62/36
f 138/63/37 136/79/37 125/64/37
f 119/55/38 123/66/38 132/65/38
f 123/66/39 122/80/39 133/67/39
f 122/68/40 121/70/40 134/69/40
f 121/70/41 120/72/41 135/71/41
f 120/72/42 118/81/42 131/73/42
f 131/73/43 118/81/43 114/74/43
f 115/78/44 114/82/44 118/83/44
f 118/83/44 120/84/44 121/85/44
f 121/85/44 122/86/44 123/76/44
f 118/83/44 121/85/44 123/76/44
f 125/64/44 115/78/44 118/83/44
f 128/59/44 129/62/44 125/64/44
f 126/87/44 127/60/44 124/77/44
f 127/60/44 128/59/44 124/77/44
f 128/59/44 125/64/44 123/76/44
f 125/64/44 118/83/44 123/76/44
f 119/77/45 124/77/45 128/59/45
f 137/53/45 124/55/45 119/55/45
f 125/64/46 136/79/46 117/50/46
f 116/75/47 117/50/47 136/79/47
f 136/79/47 138/63/47 139/61/47
f 139/61/47 140/58/47 141/56/47
f 136/79/47 139/61/47 141/56/47
f 131/73/47 116/75/47 136/79/47
f 134/69/47 135/71/47 131/73/47
f 132/65/47 133/67/47 130/53/47
f 133/67/47 134/69/47 130/53/47
f 134/69/47 131/73/47 141/56/47
f 131/73/47 136/79/47 141/56/47
f 137/53/45 130/53/45 134/69/45
